<mxfile host="app.diagrams.net" modified="2024-07-15T04:39:05.924Z" agent="Mozilla/5.0 (Windows NT 10.0; Win64; x64) AppleWebKit/537.36 (KHTML, like Gecko) Chrome/126.0.0.0 Safari/537.36" version="24.6.5" etag="rwk_spniTCMV8rXhHznu" type="github">
  <diagram name="Page-1" id="1_PV3mPzLr3AEWFYnt78">
    <mxGraphModel>
      <root>
        <mxCell id="0" />
        <mxCell id="1" parent="0" />
      </root>
    </mxGraphModel>
  </diagram>
</mxfile>
